#!OML:ASF X:\für Bonn\!DataBase\2005_08_11_Bastian_Final\c3d\Bastian.ASF
:FULLY-SPECIFIED
:DEGREES
517
root 0.578626 1.23447 20.3268 -641.49 -1.22368 -178.661
lowerback 10.4167 -1.04683 3.108
upperback 9.10614 -2.11975 1.56287
thorax 3.65909 -1.40882 0.00478395
lowerneck -8.86015 -5.0781 -8.03571
upperneck 8.9092 -6.38171 5.10999
head 4.53862 -3.1675 2.43858
rclavicle 5.1684e-015 -2.10712e-014
rhumerus -56.1003 50.8174 -110.87
rradius 24.9532
rwrist -8.75113
rhand -12.158 -1.564
rfingers 7.12502
rthumb 13.9048 -31.0791
lclavicle 5.1684e-015 -2.10712e-014
lhumerus -39.0352 -39.0312 103.988
lradius 17.5699
lwrist 22.0972
lhand -8.14541 -4.94487
lfingers 7.12502
lthumb 17.7689 24.2633
rfemur 2.25194 6.95522 22.7764
rtibia 31.942
rfoot -14.8916 -26.1743
rtoes 0.10347
lfemur 6.69414 2.3645 -15.7492
ltibia 21.081
lfoot -2.95686 10.6602
ltoes -6.61174
518
root 0.578713 1.23281 20.3271 -641.455 -1.22293 -178.65
lowerback 10.4074 -1.0565 3.11292
upperback 9.05645 -2.12423 1.56857
thorax 3.61081 -1.408 0.00927925
lowerneck -9.12709 -5.09338 -7.98872
upperneck 8.84646 -6.38173 5.11738
head 4.56231 -3.15924 2.4279
rclavicle 1.59028e-015 -1.46107e-014
rhumerus -55.9378 50.6453 -110.651
rradius 24.8897
rwrist -8.69782
rhand -12.0933 -1.60809
rfingers 7.12502
rthumb 13.9671 -31.1189
lclavicle 1.59028e-015 -1.46107e-014
lhumerus -39.0174 -38.8903 103.892
lradius 17.5348
lwrist 22.027
lhand -8.06073 -4.99048
lfingers 7.12502
lthumb 17.8504 24.2103
rfemur 2.20015 6.93298 22.7649
rtibia 31.9512
rfoot -14.8725 -26.1052
rtoes 0.174465
lfemur 6.67069 2.38764 -15.7256
ltibia 21.0382
lfoot -2.98736 10.6664
ltoes -6.43354
519
root 0.578373 1.23263 20.3277 -641.394 -1.20694 -178.652
lowerback 10.3673 -1.06996 3.14191
upperback 8.99355 -2.13024 1.56876
thorax 3.56436 -1.40513 -0.0059235
lowerneck -9.32252 -5.10258 -7.86939
upperneck 8.72974 -6.3803 5.0606
head 4.55295 -3.15222 2.38811
rclavicle -1.19271e-014 1.92821e-014
rhumerus -55.9863 50.5988 -110.668
rradius 24.8778
rwrist -8.79468
rhand -12.0141 -1.61539
rfingers 7.12502
rthumb 14.0434 -31.1209
lclavicle -1.19271e-014 1.92821e-014
lhumerus -39.066 -38.8015 103.857
lradius 17.4897
lwrist 22.0323
lhand -8.00526 -5.07419
lfingers 7.12502
lthumb 17.9038 24.1217
rfemur 2.13023 6.83941 22.7484
rtibia 31.9485
rfoot -14.809 -25.9858
rtoes 0.146329
lfemur 6.61068 2.41674 -15.6871
ltibia 21.0194
lfoot -3.01099 10.6397
ltoes -6.12435
520
root 0.578846 1.23133 20.3281 -641.359 -1.20886 -178.651
lowerback 10.3536 -1.07251 3.16284
upperback 8.94608 -2.12277 1.54738
thorax 3.5197 -1.39612 -0.0395202
lowerneck -9.56312 -5.10896 -7.74486
upperneck 8.64621 -6.38187 5.0571
head 4.56297 -3.14399 2.36242
rclavicle 2.98177e-014 -2.09718e-014
rhumerus -55.8166 50.3912 -110.492
rradius 24.8075
rwrist -8.72713
rhand -11.9346 -1.6207
rfingers 7.12502
rthumb 14.12 -31.1209
lclavicle 2.98177e-014 -2.09718e-014
lhumerus -39.1547 -38.8217 103.849
lradius 17.4991
lwrist 22.1132
lhand -7.98951 -5.09056
lfingers 7.12502
lthumb 17.9189 24.1039
rfemur 2.0819 6.83599 22.7402
rtibia 31.9542
rfoot -14.7994 -25.9155
rtoes 0.267839
lfemur 6.57421 2.52297 -15.6532
ltibia 20.992
lfoot -2.92285 10.5501
ltoes -6.15571
521
root 0.578772 1.23066 20.3292 -641.284 -1.18844 -178.653
lowerback 10.2906 -1.08115 3.18107
upperback 8.897 -2.12674 1.56274
thorax 3.50149 -1.39382 -0.0342602
lowerneck -9.8158 -5.11742 -7.65796
upperneck 8.5689 -6.37611 5.02424
head 4.57666 -3.13436 2.33393
rclavicle -3.97569e-015 1.44119e-014
rhumerus -55.8087 50.3429 -110.434
rradius 24.7826
rwrist -8.77813
rhand -11.9029 -1.58266
rfingers 7.12502
rthumb 14.1506 -31.0808
lclavicle -3.97569e-015 1.44119e-014
lhumerus -39.1746 -38.8499 103.886
lradius 17.4409
lwrist 22.2713
lhand -7.92699 -5.11332
lfingers 7.12502
lthumb 17.9791 24.0757
rfemur 1.99537 6.8119 22.7438
rtibia 31.9498
rfoot -14.7701 -25.8198
rtoes 0.477539
lfemur 6.49067 2.55636 -15.6195
ltibia 20.9831
lfoot -2.92187 10.508
ltoes -5.90559
522
root 0.578785 1.22963 20.33 -641.235 -1.19078 -178.653
lowerback 10.2717 -1.08749 3.19397
upperback 8.837 -2.12352 1.55005
thorax 3.44668 -1.38709 -0.0539124
lowerneck -10.0334 -5.11881 -7.50878
upperneck 8.5016 -6.37172 4.96512
head 4.58477 -3.12614 2.28804
rclavicle 3.10104e-014 -2.18663e-014
rhumerus -55.781 50.2246 -110.383
rradius 24.7402
rwrist -8.74582
rhand -11.8204 -1.54104
rfingers 7.12502
rthumb 14.2301 -31.0336
lclavicle 3.10104e-014 -2.18663e-014
lhumerus -39.2461 -38.7904 103.864
lradius 17.4219
lwrist 22.2464
lhand -7.86444 -5.1276
lfingers 7.12502
lthumb 18.0393 24.0558
rfemur 1.93445 6.78887 22.7254
rtibia 31.9466
rfoot -14.7467 -25.7475
rtoes 0.548693
lfemur 6.42975 2.63258 -15.6038
ltibia 20.9804
lfoot -2.83946 10.3962
ltoes -5.88841
523
root 0.578929 1.22855 20.3302 -641.197 -1.13835 -178.653
lowerback 10.2616 -1.10428 3.25523
upperback 8.78641 -2.1348 1.56084
thorax 3.39692 -1.38769 -0.075129
lowerneck -10.2335 -5.12425 -7.4338
upperneck 8.37996 -6.36717 4.9549
head 4.57724 -3.11737 2.26997
rclavicle -2.74323e-014 4.24405e-014
rhumerus -55.8205 50.1758 -110.394
rradius 24.7307
rwrist -8.81451
rhand -11.7551 -1.50078
rfingers 7.12502
rthumb 14.293 -30.9889
lclavicle -2.74323e-014 4.24405e-014
lhumerus -39.3091 -38.7707 103.883
lradius 17.4061
lwrist 22.3306
lhand -7.82267 -5.14521
lfingers 7.12502
lthumb 18.0795 24.0345
rfemur 1.88725 6.79335 22.7822
rtibia 31.9377
rfoot -14.7227 -25.7185
rtoes 0.666294
lfemur 6.37903 2.78244 -15.4991
ltibia 20.9876
lfoot -2.74273 10.2208
ltoes -5.54683
524
root 0.578833 1.22773 20.3316 -641.149 -1.14284 -178.663
lowerback 10.2365 -1.09966 3.28088
upperback 8.73778 -2.11778 1.54643
thorax 3.35769 -1.37376 -0.105171
lowerneck -10.47 -5.1388 -7.32616
upperneck 8.31799 -6.37824 4.92599
head 4.59334 -3.11657 2.23832
rclavicle -4.69132e-014 5.70512e-014
rhumerus -55.7901 50.0647 -110.347
rradius 24.6965
rwrist -8.79399
rhand -11.7269 -1.47383
rfingers 7.12502
rthumb 14.3202 -30.96
lclavicle -4.69132e-014 5.70512e-014
lhumerus -39.4073 -38.8993 103.983
lradius 17.3502
lwrist 22.5132
lhand -7.80278 -5.21844
lfingers 7.12502
lthumb 18.0986 23.9595
rfemur 1.83082 6.82047 22.7703
rtibia 31.9359
rfoot -14.7436 -25.6757
rtoes 0.883202
lfemur 6.31894 2.8978 -15.481
ltibia 20.9878
lfoot -2.61902 10.075
ltoes -5.71607
525
root 0.578928 1.2265 20.3324 -641.087 -1.11949 -178.653
lowerback 10.195 -1.11583 3.31295
upperback 8.6827 -2.12921 1.54934
thorax 3.32049 -1.37441 -0.11917
lowerneck -10.6492 -5.13923 -7.26107
upperneck 8.20809 -6.37015 4.92521
head 4.5863 -3.10675 2.22542
rclavicle 7.95139e-016 -1.21259e-014
rhumerus -55.7929 49.9918 -110.311
rradius 24.6796
rwrist -8.79745
rhand -11.6428 -1.42764
rfingers 7.12502
rthumb 14.4012 -30.908
lclavicle 7.95139e-016 -1.21259e-014
lhumerus -39.4761 -38.8508 103.986
lradius 17.3516
lwrist 22.478
lhand -7.75652 -5.23685
lfingers 7.12502
lthumb 18.1431 23.937
rfemur 1.75951 6.80529 22.7842
rtibia 31.9313
rfoot -14.722 -25.6368
rtoes 0.970246
lfemur 6.23586 3.02173 -15.4273
ltibia 20.9939
lfoot -2.50647 9.91443
ltoes -5.59793
526
root 0.578817 1.22569 20.3339 -641.038 -1.12396 -178.663
lowerback 10.1856 -1.11913 3.32054
upperback 8.61941 -2.1226 1.55211
thorax 3.25798 -1.36723 -0.119708
lowerneck -10.8191 -5.14065 -7.22708
upperneck 8.1154 -6.36081 4.93041
head 4.58416 -3.09721 2.21947
rclavicle 3.1408e-014 -1.93815e-014
rhumerus -55.9806 50.0048 -110.441
rradius 24.7171
rwrist -8.90757
rhand -11.6284 -1.40438
rfingers 7.12502
rthumb 14.4151 -30.8838
lclavicle 3.1408e-014 -1.93815e-014
lhumerus -39.5925 -38.8466 104.07
lradius 17.3555
lwrist 22.5189
lhand -7.75639 -5.22931
lfingers 7.12502
lthumb 18.1432 23.9445
rfemur 1.6977 6.77725 22.7606
rtibia 31.9313
rfoot -14.7088 -25.5766
rtoes 0.893984
lfemur 6.17684 3.13675 -15.4099
ltibia 20.9923
lfoot -2.4247 9.78873
ltoes -5.74792
527
root 0.578748 1.22425 20.3344 -640.99 -1.10232 -178.666
lowerback 10.1588 -1.12994 3.36517
upperback 8.5742 -2.12694 1.54571
thorax 3.22293 -1.36421 -0.150649
lowerneck -11.0371 -5.14154 -7.13867
upperneck 8.03792 -6.35423 4.91221
head 4.59218 -3.08829 2.19625
rclavicle 6.36111e-015 -2.37548e-014
rhumerus -56.0381 49.9896 -110.491
rradius 24.7221
rwrist -8.97656
rhand -11.6015 -1.38446
rfingers 7.12502
rthumb 14.441 -30.862
lclavicle 6.36111e-015 -2.37548e-014
lhumerus -39.6685 -38.8935 104.122
lradius 17.3369
lwrist 22.5617
lhand -7.73314 -5.25151
lfingers 7.12502
lthumb 18.1656 23.9202
rfemur 1.63926 6.84282 22.7971
rtibia 31.9288
rfoot -14.7021 -25.6276
rtoes 0.908921
lfemur 6.11644 3.18273 -15.3824
ltibia 20.9931
lfoot -2.36618 9.70537
ltoes -5.50879
528
root 0.578563 1.22373 20.3352 -640.94 -1.10477 -178.665
lowerback 10.1451 -1.13814 3.37355
upperback 8.50259 -2.12569 1.54944
thorax 3.15386 -1.35933 -0.150191
lowerneck -11.1409 -5.14205 -7.13924
upperneck 7.90183 -6.3452 4.94206
head 4.56767 -3.07969 2.20527
rclavicle -2.78299e-015 -1.10325e-014
rhumerus -56.0753 49.8657 -110.463
rradius 24.69
rwrist -8.96759
rhand -11.5743 -1.35707
rfingers 7.12502
rthumb 14.4672 -30.8327
lclavicle -2.78299e-015 -1.10325e-014
lhumerus -39.7552 -38.8001 104.154
lradius 17.3246
lwrist 22.4592
lhand -7.70767 -5.25695
lfingers 7.12502
lthumb 18.1901 23.9125
rfemur 1.58265 6.87048 22.7876
rtibia 31.9279
rfoot -14.7484 -25.6026
rtoes 1.08332
lfemur 6.04844 3.28708 -15.3675
ltibia 20.9914
lfoot -2.23032 9.55419
ltoes -5.70378
529
root 0.578605 1.2225 20.337 -640.869 -1.08437 -178.668
lowerback 10.0911 -1.14106 3.42563
upperback 8.45642 -2.11853 1.53344
thorax 3.13234 -1.34901 -0.196948
lowerneck -11.3335 -5.15025 -7.06243
upperneck 7.80861 -6.35403 4.96094
head 4.56914 -3.07767 2.19479
rclavicle -4.77083e-015 1.00386e-014
rhumerus -56.1301 49.8284 -110.544
rradius 24.6868
rwrist -9.04466
rhand -11.5599 -1.33213
rfingers 7.12502
rthumb 14.481 -30.8068
lclavicle -4.77083e-015 1.00386e-014
lhumerus -39.8375 -38.8231 104.163
lradius 17.3606
lwrist 22.4094
lhand -7.69122 -5.21815
lfingers 7.12502
lthumb 18.2059 23.9498
rfemur 1.49795 6.84513 22.7916
rtibia 31.924
rfoot -14.7175 -25.5664
rtoes 1.10214
lfemur 5.96409 3.33023 -15.3439
ltibia 20.9914
lfoot -2.15542 9.44228
ltoes -5.57024
